<svg version="1.1" id="Layer_1" xmlns="http://www.w3.org/2000/svg" xmlns:xlink="http://www.w3.org/1999/xlink" x="0px" y="0px"
	 width="100%" viewBox="0 0 339 352" enable-background="new 0 0 339 352" xml:space="preserve">
<path fill="#00053E" opacity="1.000000" stroke="none" 
	d="
M222.000000,353.000000 
	C148.000015,353.000000 74.500023,353.000000 1.000030,353.000000 
	C1.000020,235.666702 1.000020,118.333405 1.000010,1.000077 
	C113.999947,1.000051 226.999893,1.000051 339.999878,1.000026 
	C339.999939,118.333260 339.999939,235.666519 339.999969,352.999878 
	C300.833344,353.000000 261.666656,353.000000 222.000000,353.000000 
M147.789963,271.928345 
	C147.842880,273.583313 147.895798,275.238312 147.648285,277.664551 
	C147.648285,282.057007 147.648285,286.449463 147.648285,291.405762 
	C150.110062,290.844757 151.915405,290.631195 153.576599,290.023499 
	C166.678513,285.230621 179.670013,280.116608 192.884308,275.661438 
	C197.060394,274.253448 198.106918,272.258636 198.093018,268.197662 
	C197.982468,235.895523 198.069366,203.592728 198.075775,171.290146 
	C198.076126,169.535492 197.898422,167.780807 197.793625,165.841690 
	C191.724640,165.841690 186.236038,165.792725 180.748795,165.858047 
	C176.754745,165.905563 176.043671,164.453308 178.039398,161.025436 
	C184.046585,150.707382 190.074997,140.395004 195.741547,129.889679 
	C197.313736,126.974998 198.420303,123.400047 198.435196,120.122078 
	C198.520645,101.330177 198.220932,82.536392 198.024033,63.743542 
	C198.007523,62.166821 197.785248,60.592258 197.574844,57.975582 
	C180.894699,63.920315 165.021729,69.577377 148.415359,75.490662 
	C147.977509,79.011887 147.171326,82.531868 147.159363,86.054543 
	C147.051819,117.704826 147.090866,149.355591 147.065918,181.006210 
	C147.062836,184.929184 147.323288,188.702560 151.141907,191.851395 
	C156.932358,202.074341 162.722809,212.297287 168.513260,222.520233 
	C168.141098,223.054688 167.768936,223.589127 167.396774,224.123581 
	C164.320831,224.123581 161.244705,224.144424 158.168961,224.119965 
	C144.894531,224.014404 147.426697,223.279755 147.377853,234.872574 
	C147.326950,246.954483 147.737106,259.038330 147.789963,271.928345 
M272.479248,159.500183 
	C272.497437,136.524582 272.513855,113.548973 272.534882,90.573364 
	C272.540466,84.482109 271.234283,83.890030 265.340729,86.123543 
	C255.011551,90.038033 244.251297,92.931656 234.197983,97.429443 
	C220.037079,103.764923 220.892731,97.956642 220.785797,114.953598 
	C220.743820,121.624908 220.946640,127.957779 225.033691,133.962341 
	C230.590912,142.126785 235.254654,150.903946 240.210129,159.471252 
	C242.339050,163.151855 241.276733,164.948395 236.887634,165.103836 
	C233.231552,165.233337 229.558487,165.216324 225.905914,165.021225 
	C222.053375,164.815475 220.690063,166.336456 220.715546,170.262207 
	C220.876572,195.068298 220.809891,219.875748 220.878510,244.682587 
	C220.894318,250.401245 221.612595,250.798126 226.940887,248.848877 
	C240.181564,244.005051 253.413528,239.136215 266.690277,234.392883 
	C270.795197,232.926315 272.682068,230.611298 272.630035,225.929550 
	C272.387543,204.121902 272.495209,182.310364 272.479248,159.500183 
M73.457298,147.499756 
	C73.457298,186.644730 73.457298,225.789719 73.457298,264.932007 
	C75.100266,264.932007 75.640991,265.069092 76.075562,264.912201 
	C91.227020,259.441895 106.393227,254.009674 121.466400,248.330627 
	C122.732628,247.853546 124.013817,245.759491 124.165558,244.299957 
	C124.576927,240.343124 124.482201,236.321686 124.410782,232.329041 
	C124.249512,223.313507 125.333305,224.292175 116.423050,224.193527 
	C112.043877,224.145050 107.663719,224.185104 102.567299,224.185104 
	C103.432800,222.148926 103.719231,221.224091 104.190163,220.405350 
	C109.822327,210.613663 115.598869,200.902328 121.059853,191.016510 
	C122.608894,188.212326 124.151756,184.919846 124.180786,181.837021 
	C124.429848,155.379196 124.336533,128.918091 124.304695,102.458008 
	C124.303802,101.717499 123.847527,100.977531 123.564682,100.119247 
	C122.498268,100.276993 121.648804,100.264328 120.900932,100.533714 
	C106.307602,105.790459 91.685387,110.973541 77.199272,116.512222 
	C75.583488,117.130005 73.808327,119.761703 73.723129,121.536987 
	C73.324516,129.843048 73.492195,138.176254 73.457298,147.499756 
z"/>
<path fill="#3E89F9" opacity="1.000000" stroke="none" 
	d="
M149.148743,75.234436 
	C165.021729,69.577377 180.894699,63.920315 197.574844,57.975582 
	C197.785248,60.592258 198.007523,62.166821 198.024033,63.743542 
	C198.220932,82.536392 198.520645,101.330177 198.435196,120.122078 
	C198.420303,123.400047 197.313736,126.974998 195.741547,129.889679 
	C190.074997,140.395004 184.046585,150.707382 178.039398,161.025436 
	C176.043671,164.453308 176.754745,165.905563 180.748795,165.858047 
	C186.236038,165.792725 191.724640,165.841690 197.793625,165.841690 
	C197.898422,167.780807 198.076126,169.535492 198.075775,171.290146 
	C198.069366,203.592728 197.982468,235.895523 198.093018,268.197662 
	C198.106918,272.258636 197.060394,274.253448 192.884308,275.661438 
	C179.670013,280.116608 166.678513,285.230621 153.576599,290.023499 
	C151.915405,290.631195 150.110062,290.844757 147.648285,291.405762 
	C147.648285,286.449463 147.648285,282.057007 147.882233,277.583008 
	C148.614456,278.351776 149.112701,279.202148 149.610962,280.052490 
	C150.082321,279.870148 150.553696,279.687805 151.025070,279.505463 
	C149.998611,276.710754 148.972137,273.916046 147.945679,271.121338 
	C147.737106,259.038330 147.326950,246.954483 147.377853,234.872574 
	C147.426697,223.279755 144.894531,224.014404 158.168961,224.119965 
	C161.244705,224.144424 164.320831,224.123581 167.396774,224.123581 
	C167.768936,223.589127 168.141098,223.054688 168.513260,222.520233 
	C162.722809,212.297287 156.932358,202.074341 151.059052,191.102066 
	C150.247513,185.996246 148.938858,181.647202 148.882767,177.282074 
	C148.468552,145.041794 148.286179,112.798409 148.108978,80.555565 
	C148.099258,78.783821 148.786118,77.008232 149.148743,75.234436 
M149.009521,229.225586 
	C149.009521,240.320572 149.009521,251.415543 149.009521,262.510529 
	C149.674774,262.502899 150.340027,262.495300 151.005280,262.487671 
	C151.005280,254.058609 151.068466,245.628906 150.980896,237.200760 
	C150.930695,232.369263 151.330414,227.887894 157.216858,226.095398 
	C156.802811,225.579575 156.388763,225.063751 155.974701,224.547928 
	C153.662933,225.839340 151.351151,227.130768 149.009521,229.225586 
z"/>
<path fill="#1D4DFA" opacity="1.000000" stroke="none" 
	d="
M272.478424,160.000198 
	C272.495209,182.310364 272.387543,204.121902 272.630035,225.929550 
	C272.682068,230.611298 270.795197,232.926315 266.690277,234.392883 
	C253.413528,239.136215 240.181564,244.005051 226.940887,248.848877 
	C221.612595,250.798126 220.894318,250.401245 220.878510,244.682587 
	C220.809891,219.875748 220.876572,195.068298 220.715546,170.262207 
	C220.690063,166.336456 222.053375,164.815475 225.905914,165.021225 
	C229.558487,165.216324 233.231552,165.233337 236.887634,165.103836 
	C241.276733,164.948395 242.339050,163.151855 240.210129,159.471252 
	C235.254654,150.903946 230.590912,142.126785 225.033691,133.962341 
	C220.946640,127.957779 220.743820,121.624908 220.785797,114.953598 
	C220.892731,97.956642 220.037079,103.764923 234.197983,97.429443 
	C244.251297,92.931656 255.011551,90.038033 265.340729,86.123543 
	C271.234283,83.890030 272.540466,84.482109 272.534882,90.573364 
	C272.513855,113.548973 272.497437,136.524582 272.478424,160.000198 
z"/>
<path fill="#47C7E3" opacity="1.000000" stroke="none" 
	d="
M73.457413,146.999756 
	C73.492195,138.176254 73.324516,129.843048 73.723129,121.536987 
	C73.808327,119.761703 75.583488,117.130005 77.199272,116.512222 
	C91.685387,110.973541 106.307602,105.790459 120.900932,100.533714 
	C121.648804,100.264328 122.498268,100.276993 123.564682,100.119247 
	C123.847527,100.977531 124.303802,101.717499 124.304695,102.458008 
	C124.336533,128.918091 124.429848,155.379196 124.180786,181.837021 
	C124.151756,184.919846 122.608894,188.212326 121.059853,191.016510 
	C115.598869,200.902328 109.822327,210.613663 104.190163,220.405350 
	C103.719231,221.224091 103.432800,222.148926 102.567299,224.185104 
	C107.663719,224.185104 112.043877,224.145050 116.423050,224.193527 
	C125.333305,224.292175 124.249512,223.313507 124.410782,232.329041 
	C124.482201,236.321686 124.576927,240.343124 124.165558,244.299957 
	C124.013817,245.759491 122.732628,247.853546 121.466400,248.330627 
	C106.393227,254.009674 91.227020,259.441895 76.075562,264.912201 
	C75.640991,265.069092 75.100266,264.932007 73.457298,264.932007 
	C73.457298,225.789719 73.457298,186.644730 73.457413,146.999756 
z"/>
<path fill="#285EE5" opacity="1.000000" stroke="none" 
	d="
M148.782043,75.362549 
	C148.786118,77.008232 148.099258,78.783821 148.108978,80.555565 
	C148.286179,112.798409 148.468552,145.041794 148.882767,177.282074 
	C148.938858,181.647202 150.247513,185.996246 150.995239,190.760361 
	C147.323288,188.702560 147.062836,184.929184 147.065918,181.006210 
	C147.090866,149.355591 147.051819,117.704826 147.159363,86.054543 
	C147.171326,82.531868 147.977509,79.011887 148.782043,75.362549 
z"/>
<path fill="#4293F7" opacity="1.000000" stroke="none" 
	d="
M147.867828,271.524841 
	C148.972137,273.916046 149.998611,276.710754 151.025070,279.505463 
	C150.553696,279.687805 150.082321,279.870148 149.610962,280.052490 
	C149.112701,279.202148 148.614456,278.351776 148.032455,277.197357 
	C147.895798,275.238312 147.842880,273.583313 147.867828,271.524841 
z"/>
<path fill="#4293F7" opacity="1.000000" stroke="none" 
	d="
M149.024445,228.823883 
	C151.351151,227.130768 153.662933,225.839340 155.974701,224.547928 
	C156.388763,225.063751 156.802811,225.579575 157.216858,226.095398 
	C151.330414,227.887894 150.930695,232.369263 150.980896,237.200760 
	C151.068466,245.628906 151.005280,254.058609 151.005280,262.487671 
	C150.340027,262.495300 149.674774,262.502899 149.009521,262.510529 
	C149.009521,251.415543 149.009521,240.320572 149.024445,228.823883 
z"/>
</svg>